<svg preserveAspectRatio="none" width="100%" height="100%" overflow="visible" style="display: block;" viewBox="0 0 26 26" fill="none" xmlns="http://www.w3.org/2000/svg">
<g id="bxl-github.svg">
<path id="Vector" fill-rule="evenodd" clip-rule="evenodd" d="M13.0282 2.16667C7.06008 2.16667 2.223 7.00375 2.223 12.9718C2.223 17.745 5.31808 21.7956 9.61242 23.2256C10.153 23.3231 10.348 22.9905 10.348 22.7045C10.348 22.4478 10.3393 21.7674 10.3361 20.8672C7.32983 21.5193 6.695 19.4177 6.695 19.4177C6.20533 18.1697 5.49575 17.8371 5.49575 17.8371C4.51533 17.1665 5.5705 17.1817 5.5705 17.1817C6.656 17.2575 7.22475 18.2953 7.22475 18.2953C8.18892 19.9463 9.75542 19.4697 10.3686 19.1934C10.4672 18.4947 10.7488 18.018 11.0565 17.7483C8.658 17.4763 6.136 16.549 6.136 12.4074C6.136 11.2298 6.55742 10.2635 7.24533 9.5095C7.13592 9.23542 6.76217 8.13583 7.35258 6.6495C7.35258 6.6495 8.25933 6.35808 10.3231 7.75558C11.2045 7.51581 12.1137 7.39342 13.0271 7.39158C13.9405 7.39307 14.8498 7.51546 15.7311 7.75558C17.7959 6.357 18.7016 6.6495 18.7016 6.6495C19.292 8.13583 18.9215 9.23542 18.8088 9.5095C19.5022 10.2635 19.9182 11.2288 19.9182 12.4074C19.9182 16.5598 17.394 17.472 14.9868 17.7396C15.3714 18.0733 15.7181 18.7319 15.7181 19.7394C15.7181 21.1846 15.7051 22.3503 15.7051 22.7045C15.7051 22.9938 15.8979 23.3296 16.4493 23.2234C20.7415 21.7913 23.8333 17.7439 23.8333 12.9718C23.8333 7.00375 18.9963 2.16667 13.0282 2.16667Z" fill="var(--fill-0, #D3E97A)"/>
</g>
</svg>
