<svg preserveAspectRatio="none" width="100%" height="100%" overflow="visible" style="display: block;" viewBox="0 0 32 32" fill="none" xmlns="http://www.w3.org/2000/svg">
<g id="bxl-linkedin.svg">
<path id="Vector" d="M6.644 9.596C8.2552 9.596 9.56133 8.28987 9.56133 6.67867C9.56133 5.06747 8.2552 3.76133 6.644 3.76133C5.0328 3.76133 3.72667 5.06747 3.72667 6.67867C3.72667 8.28987 5.0328 9.596 6.644 9.596Z" fill="var(--fill-0, #D3E97A)"/>
<path id="Vector_2" d="M12.316 11.8067V27.992H17.3413V19.988C17.3413 17.876 17.7387 15.8307 20.3573 15.8307C22.94 15.8307 22.972 18.2453 22.972 20.1213V27.9933H28V19.1173C28 14.7573 27.0613 11.4067 21.9653 11.4067C19.5187 11.4067 17.8787 12.7493 17.208 14.02H17.14V11.8067H12.316ZM4.12667 11.8067H9.16V27.992H4.12667V11.8067Z" fill="var(--fill-0, #D3E97A)"/>
</g>
</svg>
