<svg preserveAspectRatio="none" width="100%" height="100%" overflow="visible" style="display: block;" viewBox="0 0 26 26" fill="none" xmlns="http://www.w3.org/2000/svg">
<g id="bxl-linkedin.svg">
<path id="Vector" d="M5.39825 7.79675C6.70735 7.79675 7.76858 6.73552 7.76858 5.42642C7.76858 4.11732 6.70735 3.05608 5.39825 3.05608C4.08915 3.05608 3.02792 4.11732 3.02792 5.42642C3.02792 6.73552 4.08915 7.79675 5.39825 7.79675Z" fill="var(--fill-0, #D3E97A)"/>
<path id="Vector_2" d="M10.0068 9.59292V22.7435H14.0898V16.2403C14.0898 14.5243 14.4127 12.8624 16.5403 12.8624C18.6388 12.8624 18.6648 14.8243 18.6648 16.3486V22.7446H22.75V15.5328C22.75 11.9903 21.9873 9.26792 17.8468 9.26792C15.8589 9.26792 14.5264 10.3588 13.9815 11.3913H13.9263V9.59292H10.0068ZM3.35292 9.59292H7.4425V22.7435H3.35292V9.59292Z" fill="var(--fill-0, #D3E97A)"/>
</g>
</svg>
